<svg display="none" xmlns="http://www.w3.org/2000/svg">
    <symbol viewBox="0 0 81 24" fill="none" id="logo-icon">
        <path
            d="M10.15 1.76007H14.02L23.26 23.0001H17.98L16.15 18.5001H7.89997L6.12997 23.0001H0.969971L10.15 1.76007ZM11.95 7.94007L9.36997 14.5401H14.56L11.95 7.94007Z"
            fill="#01996D" />
        <path d="M24.8863 0.320068H29.3863V23.0001H24.8863V0.320068Z" fill="#01996D" />
        <path
            d="M32.6793 8.42007H37.1793V23.0001H32.6793V8.42007ZM32.3193 3.83007C32.3193 3.11007 32.5693 2.50007 33.0693 2.00007C33.5893 1.48007 34.2093 1.22007 34.9293 1.22007C35.6493 1.22007 36.2593 1.48007 36.7593 2.00007C37.2793 2.50007 37.5393 3.11007 37.5393 3.83007C37.5393 4.55007 37.2793 5.17007 36.7593 5.69007C36.2593 6.19007 35.6493 6.44007 34.9293 6.44007C34.2093 6.44007 33.5893 6.19007 33.0693 5.69007C32.5693 5.17007 32.3193 4.55007 32.3193 3.83007Z"
            fill="#01996D" />
        <path
            d="M38.8822 8.42007H43.7422L47.4322 18.3201H47.4922L50.9122 8.42007H55.4422L49.6822 23.0001H44.9122L38.8822 8.42007Z"
            fill="#01996D" />
        <path
            d="M57.1422 8.42007H61.6422V23.0001H57.1422V8.42007ZM56.7822 3.83007C56.7822 3.11007 57.0322 2.50007 57.5322 2.00007C58.0522 1.48007 58.6722 1.22007 59.3922 1.22007C60.1122 1.22007 60.7222 1.48007 61.2222 2.00007C61.7422 2.50007 62.0022 3.11007 62.0022 3.83007C62.0022 4.55007 61.7422 5.17007 61.2222 5.69007C60.7222 6.19007 60.1122 6.44007 59.3922 6.44007C58.6722 6.44007 58.0522 6.19007 57.5322 5.69007C57.0322 5.17007 56.7822 4.55007 56.7822 3.83007Z"
            fill="#01996D" />
        <path
            d="M64.3351 15.7101C64.3351 14.5501 64.5451 13.5001 64.9651 12.5601C65.3851 11.6201 65.9551 10.8201 66.6751 10.1601C67.4151 9.48007 68.2751 8.96007 69.2551 8.60007C70.2551 8.24007 71.3151 8.06007 72.4351 8.06007C73.5551 8.06007 74.6051 8.24007 75.5851 8.60007C76.5851 8.96007 77.4451 9.48007 78.1651 10.1601C78.9051 10.8201 79.4851 11.6201 79.9051 12.5601C80.3251 13.5001 80.5351 14.5501 80.5351 15.7101C80.5351 16.8701 80.3251 17.9201 79.9051 18.8601C79.4851 19.8001 78.9051 20.6101 78.1651 21.2901C77.4451 21.9501 76.5851 22.4601 75.5851 22.8201C74.6051 23.1801 73.5551 23.3601 72.4351 23.3601C71.3151 23.3601 70.2551 23.1801 69.2551 22.8201C68.2751 22.4601 67.4151 21.9501 66.6751 21.2901C65.9551 20.6101 65.3851 19.8001 64.9651 18.8601C64.5451 17.9201 64.3351 16.8701 64.3351 15.7101ZM68.8351 15.7101C68.8351 16.8101 69.1451 17.7001 69.7651 18.3801C70.4051 19.0601 71.2951 19.4001 72.4351 19.4001C73.5751 19.4001 74.4551 19.0601 75.0751 18.3801C75.7151 17.7001 76.0351 16.8101 76.0351 15.7101C76.0351 14.6101 75.7151 13.7201 75.0751 13.0401C74.4551 12.3601 73.5751 12.0201 72.4351 12.0201C71.2951 12.0201 70.4051 12.3601 69.7651 13.0401C69.1451 13.7201 68.8351 14.6101 68.8351 15.7101Z"
            fill="#01996D" />
    </symbol>

    <symbol width="72" height="73" viewBox="0 0 72 73" id="play-icon">
        <path
            d="M35.5913 0.40329C16.0068 0.40329 0.0756836 16.5572 0.0756836 36.4122C0.0756836 56.2672 16.0068 72.4211 35.5913 72.4211C55.1758 72.4211 71.107 56.2672 71.107 36.4122C71.107 16.5572 55.1758 0.40329 35.5913 0.40329ZM35.5913 69.4204C17.6398 69.4204 3.03527 54.613 3.03527 36.4122C3.03527 18.2114 17.6398 3.40399 35.5913 3.40399C53.5428 3.40399 68.1474 18.2114 68.1474 36.4122C68.1474 54.613 53.5428 69.4204 35.5913 69.4204Z" />
        <path
            d="M49.7107 35.1506L28.9933 21.6473C28.5395 21.347 27.9528 21.3308 27.4846 21.5916C27.0076 21.8553 26.7128 22.3595 26.7128 22.9089V49.9156C26.7128 50.465 27.0076 50.9691 27.4846 51.2328C27.7042 51.3545 27.9499 51.416 28.1927 51.416C28.4701 51.416 28.7505 51.3368 28.9933 51.1771L49.7107 37.6738C50.1327 37.3984 50.3899 36.9221 50.3899 36.4122C50.3899 35.9023 50.1327 35.4262 49.7107 35.1506ZM29.6724 47.1668V25.6576L46.173 36.4122L29.6724 47.1668Z" />
    </symbol>

    <symbol width="33" height="18" viewBox="0 0 33 18" id="burger-icon">
        <line x1="0" y1="2" x2="33" y2="2" stroke="#000" stroke-width="3" />
        <line x1="0" y1="9" x2="33" y2="9" stroke="#000" stroke-width="3" />
        <line x1="0" y1="16" x2="33" y2="16" stroke="#000" stroke-width="3" />
    </symbol>

    <symbol width="24" height="24" viewBox="0 0 25 22" id="cross-icon">
        <line x1="0" y1="0" x2="25" y2="22" stroke="#000" stroke-width="3" />
        <line x1="0" y1="22" x2="25" y2="0" stroke="#000" stroke-width="3" />
    </symbol>


    <symbol viewBox="0 0 12 10" fill="none" id="user-icon">
        <path
            d="M8.50816 6.99326C8.50779 6.95053 8.52384 6.90933 8.55293 6.87813L9.41085 6.02022L10.2644 5.16667H9.05729H3.99996C3.95576 5.16667 3.91336 5.14911 3.88211 5.11785C3.85085 5.0866 3.83329 5.04421 3.83329 5C3.83329 4.9558 3.85085 4.91341 3.88211 4.88215C3.91336 4.8509 3.95576 4.83334 3.99996 4.83334H9.05729H10.2644L9.41085 3.97978L8.54885 3.11778L8.5489 3.11773L8.54265 3.11169C8.52673 3.09632 8.51403 3.07793 8.5053 3.05759C8.49656 3.03726 8.49196 3.01539 8.49177 2.99326C8.49158 2.97113 8.4958 2.94918 8.50418 2.9287C8.51256 2.90822 8.52493 2.88961 8.54058 2.87396C8.55623 2.85831 8.57484 2.84593 8.59532 2.83755C8.6158 2.82917 8.63775 2.82496 8.65988 2.82515C8.68201 2.82534 8.70388 2.82994 8.72422 2.83868C8.74455 2.84741 8.76294 2.86011 8.77831 2.87603L8.77826 2.87608L8.78441 2.88222L10.7844 4.88217C10.7844 4.88219 10.7844 4.88221 10.7844 4.88222C10.8156 4.91347 10.8331 4.95583 10.8331 5C10.8331 5.04417 10.8156 5.08653 10.7844 5.11778C10.7844 5.1178 10.7844 5.11782 10.7844 5.11784L8.78851 7.11368C8.75731 7.14278 8.71611 7.15884 8.67337 7.15847C8.62967 7.15809 8.58787 7.14056 8.55697 7.10966C8.52607 7.07876 8.50854 7.03696 8.50816 6.99326ZM1.21544 0.882151C1.2467 0.850895 1.28909 0.833336 1.33329 0.833336C1.3775 0.833336 1.41989 0.850895 1.45114 0.882151C1.4824 0.913407 1.49996 0.9558 1.49996 1V9C1.49996 9.04421 1.4824 9.0866 1.45114 9.11785C1.41989 9.14911 1.3775 9.16667 1.33329 9.16667C1.28909 9.16667 1.2467 9.14911 1.21544 9.11785C1.18419 9.0866 1.16663 9.04421 1.16663 9V1C1.16663 0.9558 1.18419 0.913407 1.21544 0.882151Z"
            fill="#252C32" stroke="#0E73F6" />
    </symbol>

    <symbol viewBox="0 0 24 24" id="calendar-icon">
        <path fill-rule="evenodd" clip-rule="evenodd"
            d="M8 4C7.73478 4 7.48043 4.10536 7.29289 4.29289C7.10536 4.48043 7 4.73478 7 5V6H6C5.46957 6 4.96086 6.21071 4.58579 6.58579C4.21071 6.96086 4 7.46957 4 8V18C4 18.5304 4.21071 19.0391 4.58579 19.4142C4.96086 19.7893 5.46957 20 6 20H18C18.5304 20 19.0391 19.7893 19.4142 19.4142C19.7893 19.0391 20 18.5304 20 18V8C20 7.46957 19.7893 6.96086 19.4142 6.58579C19.0391 6.21071 18.5304 6 18 6H17V5C17 4.73478 16.8946 4.48043 16.7071 4.29289C16.5196 4.10536 16.2652 4 16 4C15.7348 4 15.4804 4.10536 15.2929 4.29289C15.1054 4.48043 15 4.73478 15 5V6H9V5C9 4.73478 8.89464 4.48043 8.70711 4.29289C8.51957 4.10536 8.26522 4 8 4ZM8 9C7.73478 9 7.48043 9.10536 7.29289 9.29289C7.10536 9.48043 7 9.73478 7 10C7 10.2652 7.10536 10.5196 7.29289 10.7071C7.48043 10.8946 7.73478 11 8 11H16C16.2652 11 16.5196 10.8946 16.7071 10.7071C16.8946 10.5196 17 10.2652 17 10C17 9.73478 16.8946 9.48043 16.7071 9.29289C16.5196 9.10536 16.2652 9 16 9H8Z"
            fill="#B0BABF" />
    </symbol>

    <symbol viewBox="0 0 16 16" id="glass-icon">
        <path fill-rule="evenodd" clip-rule="evenodd"
            d="M6 2.00077C4.93913 2.00077 3.92172 2.42219 3.17157 3.17234C2.42143 3.92248 2 4.9399 2 6.00077C2 7.06163 2.42143 8.07905 3.17157 8.82919C3.92172 9.57934 4.93913 10.0008 6 10.0008C7.06087 10.0008 8.07828 9.57934 8.82843 8.82919C9.57857 8.07905 10 7.06163 10 6.00077C10 4.9399 9.57857 3.92248 8.82843 3.17234C8.07828 2.42219 7.06087 2.00077 6 2.00077ZM1.13461e-07 6.00077C-0.00012039 5.05647 0.222642 4.12548 0.650171 3.28351C1.0777 2.44154 1.69792 1.71236 2.4604 1.15529C3.22287 0.598219 4.10606 0.228978 5.03815 0.0775993C5.97023 -0.0737798 6.92488 -0.00302249 7.82446 0.284117C8.72404 0.571256 9.54315 1.06667 10.2152 1.73006C10.8872 2.39346 11.3931 3.2061 11.6919 4.1019C11.9906 4.9977 12.0737 5.95136 11.9343 6.88532C11.795 7.81928 11.4372 8.70716 10.89 9.47677L15.707 14.2938C15.8892 14.4824 15.99 14.735 15.9877 14.9972C15.9854 15.2594 15.8802 15.5102 15.6948 15.6956C15.5094 15.881 15.2586 15.9862 14.9964 15.9884C14.7342 15.9907 14.4816 15.8899 14.293 15.7078L9.477 10.8918C8.57936 11.53 7.52335 11.9089 6.42468 11.9869C5.326 12.0648 4.22707 11.8389 3.2483 11.3337C2.26953 10.8286 1.44869 10.0638 0.875723 9.12312C0.30276 8.18244 -0.000214051 7.1022 1.13461e-07 6.00077Z"
            fill="#B0BABF" />
    </symbol>


</svg>